<svg xmlns="http://www.w3.org/2000/svg" fill="none" width="24" height="24" viewBox="0 0 24 24"><defs><linearGradient x1=".5" x2=".5" y2="1" id="a"><stop offset="0%" stop-color="#1AC86C"/><stop offset="100%" stop-color="#02843F"/></linearGradient></defs><ellipse cx="12" cy="12" rx="12" ry="12" fill="url(#a)"/><ellipse cx="12" cy="12" rx="11.5" ry="11.5" stroke="#FFF"/><g><path d="M14.361 6.068q.075-.306.13-.445.056-.14.241-.186l2.403-.565q.112-.038.242-.038.12 0 .176.084.055.083.055.315-.055.223-.092.682-.037.46-.056 1.007-.019.547-.028 1.1-.01.551-.01.96v.51q0 .575-.008 1.252-.01.677-.024 1.373-.013.696-.032 1.373l-.037 1.271-.056 1.587q-.01.046-.01.083V16.645q0 .157.006.264.004.107.004.19 0 .093-.014.167-.014.074-.07.144-.055.07-.152.144-.098.074-.265.185-.093.065-.306.19-.213.126-.473.283l-.538.325q-.278.167-.51.302l-.376.218-.144.083-4.305-6.624-.39 5.427q-.009.075-.032.158-.023.084-.125.13-.083.037-.288.116-.204.079-.477.18-.274.103-.576.21-.301.106-.57.194-.27.089-.478.144-.209.056-.283.056-.139 0-.232-.074-.093-.075-.093-.27.093-1.16.214-2.527.12-1.369.232-2.807.111-1.438.208-2.871.098-1.434.163-2.723 0-.037-.116-.246t-.26-.455q-.144-.245-.26-.463-.116-.218-.116-.274 0-.065.07-.12.07-.056.227-.15l2.477-1.4q.028 0 .08-.01.05-.009.087-.009.102 0 .163.024.06.023.125.143l4.5 8.118V6.068z" fill="#FFF"/></g></svg>